<?xml version="1.0" encoding="utf-8"?>
<!-- Generator: Adobe Illustrator 21.0.0, SVG Export Plug-In . SVG Version: 6.00 Build 0)  -->
<svg version="1.1" id="US_UK_Download_on_the" xmlns="http://www.w3.org/2000/svg" xmlns:xlink="http://www.w3.org/1999/xlink"
	 x="0px" y="0px" viewBox="0 0 135.2 40" style="enable-background:new 0 0 135.2 40;" xml:space="preserve">
<style type="text/css">
	.st0{fill:#A6A6A6;}
	.st1{fill:#FFFFFF;}
	.st2{fill:#A4C639;}
</style>
<path class="st0" d="M130.2,40H4.7C2.1,40,0,37.9,0,35.3V4.7C0,2.1,2.1,0,4.7,0h125.5c2.6,0,4.8,2.1,4.8,4.7v30.5
	C135,37.9,132.8,40,130.2,40L130.2,40z"/>
<path d="M134,35.3c0,2.1-1.7,3.8-3.8,3.8H4.7c-2.1,0-3.8-1.7-3.8-3.8V4.7c0-2.1,1.7-3.8,3.8-3.8h125.5c2.1,0,3.8,1.7,3.8,3.8
	L134,35.3L134,35.3z"/>
<g>
	<path class="st1" d="M44.9,6.8c0.1,0,0.3,0,0.4,0c0.1,0,0.3,0,0.5,0c0.2,0,0.3,0,0.5,0c0.2,0,0.3,0,0.4,0c0.5,0,1,0.1,1.4,0.2
		c0.4,0.2,0.7,0.4,1,0.7c0.3,0.3,0.4,0.6,0.6,1.1c0.1,0.4,0.2,0.9,0.2,1.4c0,0.5-0.1,0.9-0.2,1.3c-0.1,0.4-0.3,0.8-0.6,1.1
		c-0.3,0.3-0.6,0.6-1,0.8c-0.4,0.2-0.9,0.3-1.5,0.3c-0.1,0-0.2,0-0.4,0c-0.2,0-0.3,0-0.5,0c-0.2,0-0.3,0-0.5,0c-0.1,0-0.2,0-0.3,0
		V6.8z M46.7,7.4c-0.1,0-0.2,0-0.3,0s-0.2,0-0.3,0s-0.2,0-0.3,0s-0.1,0-0.2,0v5.3c0,0,0.1,0,0.2,0c0.1,0,0.2,0,0.3,0
		c0.1,0,0.2,0,0.3,0c0.1,0,0.1,0,0.2,0c0.4,0,0.8-0.1,1.1-0.2c0.3-0.2,0.5-0.4,0.7-0.6s0.3-0.6,0.4-0.9c0.1-0.3,0.1-0.7,0.1-1
		c0-0.3,0-0.6-0.1-0.9c-0.1-0.3-0.2-0.6-0.4-0.9c-0.2-0.3-0.4-0.5-0.7-0.6C47.5,7.5,47.1,7.4,46.7,7.4z"/>
	<path class="st1" d="M50.9,11.1c0-0.8,0.2-1.4,0.5-1.8c0.4-0.4,0.9-0.6,1.5-0.6c0.4,0,0.7,0.1,0.9,0.2c0.3,0.1,0.5,0.3,0.7,0.5
		s0.3,0.5,0.4,0.8c0.1,0.3,0.1,0.6,0.1,1c0,0.8-0.2,1.4-0.5,1.9c-0.4,0.4-0.9,0.6-1.5,0.6c-0.4,0-0.7-0.1-0.9-0.2
		c-0.3-0.1-0.5-0.3-0.7-0.5c-0.2-0.2-0.3-0.5-0.4-0.8C50.9,11.8,50.9,11.4,50.9,11.1z M51.7,11.1c0,0.2,0,0.5,0.1,0.7
		c0,0.2,0.1,0.4,0.2,0.6c0.1,0.2,0.2,0.3,0.4,0.4c0.2,0.1,0.4,0.2,0.6,0.2c0.9,0,1.3-0.6,1.3-1.8c0-0.2,0-0.5-0.1-0.7
		c0-0.2-0.1-0.4-0.2-0.6s-0.2-0.3-0.4-0.4c-0.2-0.1-0.4-0.1-0.6-0.1C52.1,9.2,51.7,9.8,51.7,11.1z"/>
	<path class="st1" d="M59.3,8.7l1.1,2.8l0.2,0.9h0l0.2-0.9l0.8-2.8h0.7l-1.6,4.9h-0.4l-1.2-3.1L59,9.6h0l-0.2,0.8l-1.2,3.1h-0.4
		l-1.7-4.9h0.8l0.9,2.8l0.2,0.9h0l0.2-0.9l1-2.7H59.3z"/>
	<path class="st1" d="M66.4,13.4v-2.7c0-0.5-0.1-0.9-0.2-1.1s-0.4-0.4-0.8-0.4c-0.3,0-0.6,0.1-0.8,0.3s-0.4,0.4-0.5,0.7v3.3h-0.8
		V8.7h0.5L64,9.3h0c0.2-0.2,0.4-0.4,0.6-0.5c0.3-0.1,0.6-0.2,0.9-0.2c0.3,0,0.5,0,0.7,0.1c0.2,0.1,0.4,0.2,0.5,0.3
		C66.9,9.1,67,9.3,67,9.6s0.1,0.6,0.1,1v2.9H66.4z"/>
	<path class="st1" d="M69.5,12.3c0,0.2,0,0.4,0.1,0.5s0.2,0.1,0.3,0.1c0.1,0,0.2,0,0.3,0c0.1,0,0.2,0,0.3-0.1l0.1,0.6
		c-0.1,0.1-0.2,0.1-0.4,0.1s-0.3,0-0.5,0c-0.3,0-0.5-0.1-0.7-0.2s-0.3-0.4-0.3-0.8V6.8h0.8V12.3z"/>
	<path class="st1" d="M71.2,11.1c0-0.8,0.2-1.4,0.5-1.8c0.4-0.4,0.9-0.6,1.5-0.6c0.4,0,0.7,0.1,0.9,0.2c0.3,0.1,0.5,0.3,0.7,0.5
		s0.3,0.5,0.4,0.8c0.1,0.3,0.1,0.6,0.1,1c0,0.8-0.2,1.4-0.5,1.9c-0.4,0.4-0.9,0.6-1.5,0.6c-0.4,0-0.7-0.1-0.9-0.2
		c-0.3-0.1-0.5-0.3-0.7-0.5c-0.2-0.2-0.3-0.5-0.4-0.8C71.3,11.8,71.2,11.4,71.2,11.1z M72,11.1c0,0.2,0,0.5,0.1,0.7
		c0,0.2,0.1,0.4,0.2,0.6c0.1,0.2,0.2,0.3,0.4,0.4c0.2,0.1,0.4,0.2,0.6,0.2c0.9,0,1.3-0.6,1.3-1.8c0-0.2,0-0.5-0.1-0.7
		c0-0.2-0.1-0.4-0.2-0.6s-0.2-0.3-0.4-0.4c-0.2-0.1-0.4-0.1-0.6-0.1C72.4,9.2,72,9.8,72,11.1z"/>
	<path class="st1" d="M76.6,9c0.2-0.1,0.5-0.3,0.8-0.3s0.7-0.1,1-0.1c0.3,0,0.6,0,0.8,0.1c0.2,0.1,0.4,0.2,0.5,0.3
		c0.1,0.1,0.2,0.3,0.2,0.5c0,0.2,0.1,0.3,0.1,0.5c0,0.4,0,0.8,0,1.1c0,0.4,0,0.7,0,1c0,0.2,0,0.5,0,0.7c0,0.2,0.1,0.4,0.1,0.6h-0.6
		l-0.2-0.7h0C79.2,12.9,79.1,13,79,13s-0.2,0.2-0.3,0.2c-0.1,0.1-0.3,0.1-0.4,0.2c-0.2,0-0.3,0.1-0.5,0.1c-0.2,0-0.4,0-0.6-0.1
		c-0.2-0.1-0.3-0.2-0.5-0.3c-0.1-0.1-0.2-0.3-0.3-0.4c-0.1-0.2-0.1-0.4-0.1-0.6c0-0.3,0.1-0.5,0.2-0.7s0.3-0.3,0.5-0.4
		s0.5-0.2,0.7-0.2c0.3,0,0.6-0.1,1-0.1c0.1,0,0.2,0,0.3,0c0.1,0,0.2,0,0.3,0c0-0.2,0-0.4,0-0.5c0-0.3-0.1-0.6-0.2-0.7
		s-0.4-0.2-0.8-0.2c-0.1,0-0.2,0-0.3,0c-0.1,0-0.2,0-0.4,0.1s-0.3,0.1-0.4,0.1c-0.1,0-0.2,0.1-0.3,0.1L76.6,9z M78,12.8
		c0.2,0,0.3,0,0.5-0.1c0.1,0,0.3-0.1,0.4-0.2c0.1-0.1,0.2-0.2,0.3-0.2c0.1-0.1,0.1-0.2,0.1-0.3v-0.8c-0.1,0-0.2,0-0.3,0
		c-0.1,0-0.2,0-0.3,0c-0.2,0-0.4,0-0.6,0c-0.2,0-0.4,0.1-0.5,0.1c-0.1,0.1-0.3,0.1-0.3,0.2c-0.1,0.1-0.1,0.2-0.1,0.4
		c0,0.2,0.1,0.4,0.2,0.5C77.5,12.8,77.7,12.8,78,12.8z"/>
	<path class="st1" d="M85.2,11.8c0,0.3,0,0.6,0,0.9c0,0.3,0,0.5,0.1,0.8h-0.5l-0.2-0.7h0c-0.1,0.2-0.3,0.4-0.6,0.6
		c-0.2,0.1-0.5,0.2-0.8,0.2c-0.6,0-1.1-0.2-1.4-0.6c-0.3-0.4-0.5-1-0.5-1.9c0-0.8,0.2-1.4,0.6-1.8c0.4-0.4,0.9-0.6,1.6-0.6
		c0.2,0,0.4,0,0.6,0c0.1,0,0.3,0.1,0.4,0.1v-2h0.8V11.8z M83.2,12.9c0.3,0,0.6-0.1,0.8-0.3c0.2-0.2,0.3-0.4,0.4-0.8V9.5
		c-0.1-0.1-0.2-0.2-0.4-0.2c-0.1,0-0.3-0.1-0.6-0.1c-0.4,0-0.8,0.1-1,0.4C82.1,10,82,10.4,82,11.1c0,0.3,0,0.5,0.1,0.7
		c0,0.2,0.1,0.4,0.2,0.6c0.1,0.2,0.2,0.3,0.4,0.4S83,12.9,83.2,12.9z"/>
	<path class="st1" d="M88.8,8.7h0.7V8.4c0-0.3,0-0.5,0.1-0.8c0-0.2,0.1-0.4,0.2-0.5C90,7,90.1,6.9,90.3,6.8c0.2-0.1,0.4-0.1,0.6-0.1
		c0.2,0,0.4,0,0.5,0s0.3,0.1,0.5,0.1l-0.2,0.6c-0.1-0.1-0.3-0.1-0.4-0.1c-0.1,0-0.3,0-0.4,0c-0.2,0-0.3,0-0.4,0.1
		c-0.1,0.1-0.2,0.1-0.2,0.2c0,0.1-0.1,0.2-0.1,0.4c0,0.1,0,0.3,0,0.5v0.1h1.3v0.7h-1.3v4.1h-0.8V9.3h-0.7V8.7z"/>
	<path class="st1" d="M92.1,11.1c0-0.8,0.2-1.4,0.5-1.8c0.4-0.4,0.9-0.6,1.5-0.6c0.4,0,0.7,0.1,0.9,0.2c0.3,0.1,0.5,0.3,0.7,0.5
		s0.3,0.5,0.4,0.8c0.1,0.3,0.1,0.6,0.1,1c0,0.8-0.2,1.4-0.5,1.9c-0.4,0.4-0.9,0.6-1.5,0.6c-0.4,0-0.7-0.1-0.9-0.2
		c-0.3-0.1-0.5-0.3-0.7-0.5c-0.2-0.2-0.3-0.5-0.4-0.8C92.1,11.8,92.1,11.4,92.1,11.1z M92.9,11.1c0,0.2,0,0.5,0.1,0.7
		c0,0.2,0.1,0.4,0.2,0.6c0.1,0.2,0.2,0.3,0.4,0.4c0.2,0.1,0.4,0.2,0.6,0.2c0.9,0,1.3-0.6,1.3-1.8c0-0.2,0-0.5-0.1-0.7
		c0-0.2-0.1-0.4-0.2-0.6S95,9.5,94.8,9.4c-0.2-0.1-0.4-0.1-0.6-0.1C93.3,9.2,92.9,9.8,92.9,11.1z"/>
	<path class="st1" d="M99.8,9.4c-0.2-0.1-0.4-0.1-0.5-0.1c-0.3,0-0.5,0.1-0.6,0.2s-0.3,0.3-0.3,0.6v3.3h-0.8V8.7h0.5l0.1,0.6h0
		c0.1-0.2,0.3-0.4,0.4-0.5c0.2-0.1,0.4-0.2,0.6-0.2c0.2,0,0.4,0,0.6,0.1L99.8,9.4z"/>
</g>
<g id="_x23_000000ff">
	<path class="st1" d="M80.8,16.1c0.4,0,0.8-0.2,1.1,0.1c0.1,0.4,0,0.7,0,1.1c0,4.7,0,9.3,0,14c-0.4,0.1-0.7,0.1-1.1,0
		c0-0.8,0-1.5,0-2.3c-0.9,1.2-2.1,2.1-3.5,2.4c-1.7,0.4-3.7,0.1-5.1-1c-0.9-0.7-1.6-1.7-2.1-2.7c-0.7-1.7-0.5-3.8,0.5-5.4
		c0.8-1.3,2.1-2.3,3.7-2.6c1.6-0.4,3.4-0.1,4.7,0.8c0.7,0.4,1.2,1,1.7,1.6C80.8,20,80.8,18,80.8,16.1 M74.7,20.7
		c-2.4,0.5-4.1,3-3.8,5.4c0.2,1.7,1.4,3.1,2.9,3.9c1.3,0.5,2.8,0.6,4-0.1c2-0.8,3.3-3.1,2.9-5.3c-0.2-1.5-1.2-2.8-2.5-3.5
		C77.1,20.6,75.9,20.5,74.7,20.7z"/>
	<path class="st1" d="M117.6,16.1c0.3-0.3,0.7-0.1,1.1,0c0,5.1,0,10.1,0,15.2c-0.4,0.1-0.7,0.1-1.1,0c0-0.8,0-1.5,0-2.3
		c-1,1.4-2.7,2.5-4.5,2.6c-1.2,0.1-2.4-0.2-3.4-0.8c-1.5-0.8-2.6-2.3-3-4c-0.3-1.5-0.1-3.1,0.8-4.4c0.9-1.4,2.3-2.4,3.9-2.7
		c1.6-0.3,3.3,0,4.6,0.9c0.6,0.4,1.1,0.9,1.6,1.5C117.6,20,117.5,18.1,117.6,16.1 M111.5,20.7c-1.3,0.3-2.5,1.2-3.2,2.4
		c-0.6,1-0.7,2.2-0.5,3.3c0.3,1.6,1.5,3,3.1,3.6c1,0.4,2.1,0.4,3.2,0.1c1-0.4,2-1,2.6-2c0.8-1.1,1.1-2.6,0.7-3.9
		c-0.3-1.5-1.4-2.7-2.7-3.4C113.7,20.5,112.5,20.5,111.5,20.7z"/>
	<path class="st1" d="M103.7,16.2c0.6-0.2,1.2,0.6,0.8,1.1c-0.2,0.4-0.9,0.5-1.2,0.1C102.9,17,103.2,16.3,103.7,16.2z"/>
	<path class="st1" d="M48.3,19.5c1.3-0.2,2.7-0.1,3.8,0.6c0.9,0.4,1.6,1.1,2.3,1.9c0-0.8,0-1.6,0-2.4c0.3,0,0.7,0,1,0
		c0.1,3.9,0,7.8,0,11.7c-0.3,0.1-0.7,0.1-1.1,0c0-0.8,0-1.5,0-2.3c-1,1.2-2.2,2.2-3.8,2.4c-1.3,0.3-2.7,0.1-4-0.5
		c-1.8-0.9-3-2.6-3.3-4.5c-0.1-1.1,0-2.3,0.5-3.3C44.6,21.2,46.4,19.9,48.3,19.5 M48.4,20.7c-1.7,0.4-3.2,1.7-3.7,3.5
		c-0.6,2,0.3,4.3,2,5.4c1.2,0.8,2.7,1,4,0.7c1.6-0.5,2.9-1.7,3.4-3.3c0.7-1.9-0.1-4.2-1.8-5.4C51.2,20.7,49.7,20.4,48.4,20.7z"/>
	<path class="st1" d="M59.7,20.6c1.9-1.6,4.9-1.6,6.8,0c1.2,1,2,2.6,2,4.2c0,2.2,0,4.3,0,6.5c-0.4,0.1-0.8,0.1-1.1,0
		c0-2.2,0-4.5,0-6.7c-0.1-2.2-2.1-4.1-4.3-4c-2.2,0-4.1,1.9-4.2,4.1c0,2.2,0,4.4,0,6.6c-0.4,0.1-0.7,0.1-1.1,0c0-2.1,0-4.2,0-6.3
		C57.7,23.3,58.4,21.7,59.7,20.6z"/>
	<path class="st1" d="M83.9,24.5c0-2.8,2.6-5.3,5.3-5.1c0,0.3,0.1,0.7,0,1c-0.3,0.2-0.6,0.1-0.9,0.2c-1.2,0.3-2.3,1.1-2.9,2.3
		C84.9,24,85,25.2,85,26.4c0,1.6,0,3.2,0,4.9c-0.3,0.2-0.7,0.1-1.1,0.1C83.9,29,83.9,26.8,83.9,24.5z"/>
	<path class="st1" d="M93.9,19.6c1.4-0.3,3-0.1,4.2,0.7c1.5,0.9,2.7,2.4,3,4.2c0.2,1.1,0.1,2.3-0.4,3.4c-0.8,2-2.8,3.5-4.9,3.7
		c-1.4,0.1-2.9-0.2-4.1-1.1c-1.3-0.9-2.2-2.3-2.5-3.8c-0.3-1.5,0-3,0.8-4.3C90.8,20.9,92.3,19.9,93.9,19.6 M94.1,20.7
		c-2.4,0.5-4.2,3-3.8,5.5c0.2,1.3,0.8,2.4,1.9,3.2c1.1,1,2.8,1.3,4.3,0.9c0.9-0.3,1.8-0.8,2.4-1.5c0.9-0.9,1.3-2.2,1.3-3.5
		c-0.1-1.7-1.1-3.3-2.6-4.1C96.5,20.6,95.2,20.5,94.1,20.7z"/>
	<path class="st1" d="M103.3,19.9c0.3-0.3,0.8-0.2,1.2-0.1c0,3.7,0,7.3,0,11c0,0.5-0.7,0.2-1,0.3c-0.1,0-0.2-0.1-0.2-0.2
		C103.3,27.3,103.2,23.6,103.3,19.9z"/>
</g>
<g>
	<path class="st2" d="M17.7,4.1l1.4,2.5c-2.6,1.3-4.4,3.8-4.4,6.7h8.4h8.4c0-2.9-1.8-5.4-4.4-6.7l1.4-2.5c0,0,0.1-0.1-0.1-0.2
		c-0.1-0.1-0.2,0.1-0.2,0.1l-1.5,2.5c-1.1-0.5-2.4-0.8-3.7-0.8c-1.3,0-2.6,0.3-3.7,0.8l-1.5-2.5c0,0-0.1-0.1-0.2-0.1
		C17.6,4,17.7,4.1,17.7,4.1L17.7,4.1z M19.1,9c0.4,0,0.8,0.4,0.8,0.8c0,0.4-0.4,0.8-0.8,0.8c-0.4,0-0.8-0.3-0.8-0.8
		C18.3,9.3,18.7,9,19.1,9z M27.1,9c0.4,0,0.8,0.4,0.8,0.8c0,0.4-0.4,0.8-0.8,0.8c-0.4,0-0.8-0.3-0.8-0.8C26.3,9.3,26.7,9,27.1,9z"/>
	<path class="st2" d="M14.6,14.3v12.8c0,0.6,0.8,1.5,1.4,1.5h2v4.4c0,1.1,0.8,2,1.8,2c1,0,1.8-0.9,1.8-2v-4.4h2.9v4.4
		c0,1.1,0.8,2,1.8,2c1,0,1.8-0.9,1.8-2v-4.4h2c0.6,0,1.4-0.8,1.4-1.5V14.3H14.6L14.6,14.3z"/>
	<path class="st2" d="M11.8,14L11.8,14c1,0,1.8,0.9,1.8,2v7.6c0,1.1-0.8,2-1.8,2l0,0c-1,0-1.8-0.9-1.8-2V16C10,14.9,10.8,14,11.8,14
		z"/>
	<path class="st2" d="M34.4,14L34.4,14c1,0,1.8,0.9,1.8,2v7.6c0,1.1-0.8,2-1.8,2l0,0c-1,0-1.8-0.9-1.8-2V16
		C32.6,14.9,33.4,14,34.4,14z"/>
</g>
</svg>
